<?xml version="1.0" encoding="utf-8"?>
<!-- Generator: Adobe Illustrator 19.1.0, SVG Export Plug-In . SVG Version: 6.00 Build 0)  -->
<!DOCTYPE svg PUBLIC "-//W3C//DTD SVG 1.1//EN" "http://www.w3.org/Graphics/SVG/1.1/DTD/svg11.dtd">
<svg version="1.1" id="Layer_1" xmlns="http://www.w3.org/2000/svg" xmlns:xlink="http://www.w3.org/1999/xlink" x="0px" y="0px"
	 viewBox="0 0 401.5 402" enable-background="new 0 0 401.5 402" xml:space="preserve">
<g id="wZGpwv_1_">
	<g>
		<path fill="#FFFFFF" d="M-7.8,412c0-140.4,0-280.8,0-421.3c140.4,0,280.8,0,421.3,0c0,140.4,0,280.8,0,421.3
			C273.1,412,132.6,412-7.8,412z M400.8,201.4c0-54.9-0.3-109.9,0.2-164.8c0.1-16.7-12.7-34.7-34.4-34.7c-110.1,0-220.1,0-330.2,0
			C16.5,1.9,2,16.7,2,36.5c0,110,0,219.9,0,329.9c0,2.6,0.2,5.2,0.7,7.7c3.6,16.5,16.9,26.8,34.4,26.8c79.1,0,158.1,0,237.2,0
			c30.6,0,61.1-0.1,91.7,0c22,0.1,35.1-17.9,34.9-34.8C400.5,311.2,400.8,256.3,400.8,201.4z"/>
		<path fill="#A93959" d="M400.8,201.4c0,54.9-0.3,109.9,0.2,164.8c0.1,17-13,35-34.9,34.8c-30.6-0.2-61.1,0-91.7,0
			c-79.1,0-158.1,0-237.2,0c-17.4,0-30.8-10.4-34.4-26.8C2.2,371.6,2,369,2,366.4c0-110,0-219.9,0-329.9C2,16.7,16.5,1.9,36.4,1.9
			c110.1-0.1,220.1,0,330.2,0c21.7,0,34.5,18,34.4,34.7C400.5,91.5,400.8,146.4,400.8,201.4z M30.3,304.5c1.6,0,3,0,4.4,0
			c37.6,0,75.2,0.1,112.9-0.1c6,0,12.1-0.8,17.9-2.4c21-5.8,35.7-18.4,40.9-40.3c3.4-14.5,1.8-28.8-3.4-42.7
			c-5.5-14.8-15.1-25.1-32.7-26.2c7.8-3.7,13.9-8.3,18.6-14.6c8.3-11.2,10.2-23.8,9-37.4c-2-23.2-19-41-42.3-42.8
			c-11.5-0.9-23.1-0.4-34.6-0.4c-24.4,0.1-48.7,0.3-73.1,0.4c-5.8,0-11.6,0-17.6,0C30.3,167.1,30.3,235.6,30.3,304.5z M259.7,240.1
			c36.3,0,72.4,0,108.6,0c1.1-18.8-0.9-36.7-8.7-53.6c-8.6-18.6-23-30.4-42.9-35.1c-13.3-3.2-26.7-3.1-40.1-0.8
			c-24.8,4.3-43,17.6-52.7,41.1c-9.1,21.9-9.9,44.6-3.5,67.3c6.2,21.6,19.5,37.7,40.9,45.6c25.6,9.5,51.5,8.9,77-0.9
			c9.7-3.7,17.9-9.7,23.7-18.7c4.9-7.5,6.9-15.9,6.6-25.2c-1.5,0-2.7,0-3.9,0c-9.4,0-18.9,0.2-28.3-0.1c-4.7-0.2-7.6,0.7-10.4,5.3
			c-5.2,8.6-14.1,11.5-23.8,12.7C278.9,280.4,259.1,263.2,259.7,240.1z M337.5,112.7c-28.7,0-57,0-85.4,0c0,6.9,0,13.6,0,20.2
			c28.6,0,57,0,85.4,0C337.5,126.1,337.5,119.6,337.5,112.7z"/>
		<path fill="#FFFFFF" d="M30.3,304.5c0-68.9,0-137.4,0-206.5c6,0,11.8,0,17.6,0c24.4-0.1,48.7-0.3,73.1-0.4
			c11.6,0,23.2-0.5,34.6,0.4c23.3,1.8,40.3,19.6,42.3,42.8c1.2,13.5-0.8,26.2-9,37.4c-4.7,6.3-10.8,10.9-18.6,14.6
			c17.6,1.2,27.2,11.4,32.7,26.2c5.2,13.9,6.8,28.2,3.4,42.7c-5.1,21.9-19.8,34.5-40.9,40.3c-5.8,1.6-11.9,2.4-17.9,2.4
			c-37.6,0.2-75.2,0.1-112.9,0.1C33.3,304.5,31.8,304.5,30.3,304.5z M77,268.4c1.1,0.1,1.7,0.2,2.4,0.2c18.2,0.2,36.4,0.3,54.5,0.5
			c15.7,0.2,25-7.8,27.2-23.3c2.6-18.8-8.6-31.9-27.5-32c-17.7,0-35.5,0-53.2,0c-1.2,0-2.4,0.1-3.4,0.2C77,232.3,77,250.3,77,268.4z
			 M76.9,183.5c1.1,0.1,1.6,0.1,2.2,0.1c10.7,0.2,21.3,0.3,32,0.4c5.4,0.1,10.8-0.3,16.2,0.1c11.3,0.7,22.8-5.7,24.4-21.4
			c1.9-18.8-8.6-29.7-25.4-29.4c-15.2,0.2-30.3,0-45.5,0c-1.3,0-2.6,0-3.9,0C76.9,150.3,76.9,166.7,76.9,183.5z"/>
		<path fill="#FFFFFF" d="M259.7,240.1c-0.5,23.1,19.3,40.4,42.4,37.6c9.6-1.2,18.6-4.1,23.8-12.7c2.7-4.5,5.7-5.5,10.4-5.3
			c9.4,0.3,18.9,0.1,28.3,0.1c1.2,0,2.4,0,3.9,0c0.3,9.3-1.8,17.6-6.6,25.2c-5.7,8.9-13.9,14.9-23.7,18.7
			c-25.5,9.8-51.4,10.3-77,0.9c-21.4-7.9-34.7-24-40.9-45.6c-6.5-22.7-5.6-45.4,3.5-67.3c9.7-23.5,27.9-36.8,52.7-41.1
			c13.4-2.3,26.8-2.4,40.1,0.8c19.9,4.7,34.3,16.5,42.9,35.1c7.8,16.9,9.8,34.8,8.7,53.6C332.1,240.1,296,240.1,259.7,240.1z
			 M261.2,211.9c22.6,0,45,0,67.4,0c-2.4-13.4-13.6-30.1-32.6-30.4C278.5,181.3,263.7,194.1,261.2,211.9z"/>
		<path fill="#FFFFFF" d="M337.5,112.7c0,6.9,0,13.4,0,20.2c-28.5,0-56.8,0-85.4,0c0-6.6,0-13.3,0-20.2
			C280.5,112.7,308.9,112.7,337.5,112.7z"/>
		<path fill="#A93959" d="M77,268.4c0-18.1,0-36.1,0-54.5c1,0,2.2-0.2,3.4-0.2c17.7,0,35.5,0,53.2,0c18.9,0,30.1,13.2,27.5,32
			c-2.2,15.6-11.5,23.5-27.2,23.3c-18.2-0.2-36.4-0.3-54.5-0.5C78.7,268.6,78.1,268.5,77,268.4z"/>
		<path fill="#A93959" d="M76.9,183.5c0-16.8,0-33.2,0-50.2c1.3,0,2.6,0,3.9,0c15.2,0,30.3,0.2,45.5,0c16.8-0.2,27.3,10.6,25.4,29.4
			c-1.6,15.8-13.2,22.1-24.4,21.4c-5.4-0.3-10.8,0-16.2-0.1c-10.7-0.1-21.3-0.3-32-0.4C78.5,183.6,78,183.6,76.9,183.5z"/>
		<path fill="#A93959" d="M261.2,211.9c2.4-17.8,17.2-30.7,34.9-30.4c19,0.3,30.2,17,32.6,30.4C306.3,211.9,283.9,211.9,261.2,211.9
			z"/>
	</g>
</g>
</svg>
