<?xml version="1.0" encoding="utf-8"?>
<!-- Generator: Adobe Illustrator 19.1.0, SVG Export Plug-In . SVG Version: 6.00 Build 0)  -->
<!DOCTYPE svg PUBLIC "-//W3C//DTD SVG 1.1//EN" "http://www.w3.org/Graphics/SVG/1.1/DTD/svg11.dtd">
<svg version="1.1" id="Layer_1" xmlns="http://www.w3.org/2000/svg" xmlns:xlink="http://www.w3.org/1999/xlink" x="0px" y="0px"
	 viewBox="0 0 401.5 402" enable-background="new 0 0 401.5 402" xml:space="preserve">
<g id="obj0iK.tif">
	<g>
		<path fill="#A93959" d="M401.1,71.9c0,86,0,172,0,258c-0.3,0.6-0.8,1.1-0.8,1.7c-4.7,38-38.3,69.7-82.2,69.4
			c-78.1-0.5-156.3,0-234.4-0.3c-9.5,0-19.4-1.4-28.4-4.4c-33.5-11.2-54.1-41.1-54.2-77c-0.1-55.5,0-110.9,0-166.4
			c0-25.2-0.8-50.3,0.3-75.5c1.4-30.9,16.7-54,44.3-68c8.1-4.1,17.5-5.8,26.3-8.5c86,0,172,0,258,0c0.9,0.3,1.8,0.8,2.7,0.9
			c27.9,4.7,48.3,19.6,60.4,45.1C396.9,54.8,398.5,63.6,401.1,71.9z M46.9,170.9c0,2,0,3.6,0,5.3c0,50.3,0,100.7,0,151
			c0,17.4,10.2,27.5,27.7,27.5c84,0,168,0,252,0c17.3,0,27.5-10.3,27.5-27.7c0-50.2,0-100.3,0-150.5c0-1.8,0-3.6,0-5.5
			c-11.7,0-22.8,0-34.3,0c8,38,2.1,72.9-21.5,103.8c-23.6,31-55.3,47.5-94.3,48.8c-34.8,1.2-65.3-10.8-89.9-35.5
			c-32.5-32.6-42.5-72.3-33.2-117.2C69.7,170.9,58.7,170.9,46.9,170.9z M277.6,201.6c1-40.9-33.1-76.6-74.2-77.7
			c-44-1.1-79.2,32.4-80.1,76.3c-0.8,41,33.2,76.6,74.3,77.7C241.7,279,276.5,245.8,277.6,201.6z M354.2,86.6c0-4.8,0.1-9.7,0-14.5
			c-0.4-13.3-11-23.9-24.4-24.2c-9.3-0.2-18.7-0.2-28,0c-13.6,0.2-24.4,10.9-24.6,24.5c-0.2,9.3-0.2,18.7,0,28
			c0.3,13.5,11.1,24.3,24.7,24.5c9.3,0.2,18.7,0.2,28,0c13.3-0.3,24-11,24.3-24.3C354.3,95.9,354.2,91.2,354.2,86.6z"/>
		<path fill="#FFFFFF" d="M72.1,0.9c-8.8,2.8-18.2,4.4-26.3,8.5c-27.6,14-43,37-44.3,68c-1.1,25.1-0.3,50.3-0.3,75.5
			c0,55.5-0.1,110.9,0,166.4c0,35.9,20.7,65.8,54.2,77c9,3,18.9,4.3,28.4,4.4c78.1,0.3,156.3-0.2,234.4,0.3
			c43.9,0.3,77.5-31.4,82.2-69.4c0.1-0.6,0.5-1.2,0.8-1.7c0,24,0,48,0,72c-133.7,0-267.3,0-401,0c0-133.7,0-267.3,0-401
			C24.1,0.9,48.1,0.9,72.1,0.9z"/>
		<path fill="#FFFFFF" d="M401.1,71.9c-2.6-8.3-4.2-17.1-7.9-24.9c-12.1-25.5-32.5-40.4-60.4-45.1c-0.9-0.2-1.8-0.6-2.7-0.9
			c23.7,0,47.3,0,71,0C401.1,24.6,401.1,48.2,401.1,71.9z"/>
		<path fill="#FFFFFF" d="M46.9,170.9c11.8,0,22.8,0,34.2,0c-9.2,45,0.7,84.6,33.2,117.2c24.6,24.7,55,36.6,89.9,35.5
			c38.9-1.3,70.6-17.8,94.3-48.8C322,243.9,328,208.9,319.9,171c11.5,0,22.6,0,34.3,0c0,1.9,0,3.7,0,5.5c0,50.2,0,100.3,0,150.5
			c0,17.4-10.2,27.7-27.5,27.7c-84,0-168,0-252,0c-17.5,0-27.7-10.2-27.7-27.5c0-50.3,0-100.7,0-151
			C46.9,174.6,46.9,172.9,46.9,170.9z"/>
		<path fill="#FFFFFF" d="M277.6,201.6c-1.1,44.2-36,77.5-80,76.3c-41.1-1.1-75.1-36.7-74.3-77.7c0.9-43.9,36.1-77.5,80.1-76.3
			C244.5,125,278.7,160.7,277.6,201.6z"/>
		<path fill="#FFFFFF" d="M354.2,86.6c0,4.7,0.1,9.3,0,14c-0.4,13.3-11,24-24.3,24.3c-9.3,0.2-18.7,0.2-28,0
			c-13.6-0.2-24.4-11-24.7-24.5c-0.2-9.3-0.2-18.7,0-28c0.3-13.6,11-24.3,24.6-24.5c9.3-0.2,18.7-0.2,28,0
			c13.4,0.3,24,10.9,24.4,24.2C354.3,76.9,354.2,81.7,354.2,86.6z"/>
	</g>
	<rect x="45.1" y="0.9" fill="#FFFFFF" width="19" height="93"/>
	<rect x="75.1" y="0.9" fill="#FFFFFF" width="19" height="93"/>
	<rect x="106.1" y="0.9" fill="#FFFFFF" width="19" height="93"/>
	<circle fill="#A93959" cx="200.1" cy="200.5" r="35.6"/>
</g>
</svg>
