<svg xmlns="http://www.w3.org/2000/svg" viewBox="0 0 960 560" enable-background="new 0 0 960 560"><path fill="#A8395A" d="M32.1 276.7h889.9v6.5h-889.9zm152.1 257.5l-68.4-118.6h133.1l229.1-389.7 229.9 389.7 134.3-.5-69.4 119-294.8-499.7-293.8 499.8zm526.2-114.3l62.3 105.7 61.9-106.2-124.2.5zm-587.1 0l60.9 105.7 62.2-105.7h-123.1zm113.4 20.6l-117.2-19.8"/><path fill="#A8395A" d="M119.5 417.7l129.4-2.1-64.7 114.3zm589.3 1.1l129.4-2.2-64.7 114.4zm-377.1-135.6l291.2-3.2-144.9-245.6z"/><path fill="#97B9E2" d="M32.1 271.3h889.9v6.5h-889.9zm152.1 257.4l-68.4-118.6h133.1l229.1-389.6 229.9 389.7 134.3-.5-69.4 119-294.8-499.7-293.8 499.7zm526.2-114.2l62.3 105.7 62-106.2-124.3.5zm-587.1-.1l60.9 105.7 62.2-105.7h-123.1zm113.4 20.6l-117.2-19.7m0-3l129.4-2.2-64.7 114.3zm589.3 1.1l129.4-2.2-64.7 114.3zm-377.1-135.6l291.2-3.3-144.9-245.5zm-300.3-1.3h889.9v6.5h-889.9zm445.9 248.8l294.8-499.7 69.4 119-134.3-.5-229.9 389.7-229.1-389.6h-133.1l68.4-118.6 293.8 499.7zm356.7-385l-61.9-106.2-62.3 105.7 124.2.5zm-588.3-.4l-62.2-105.7-60.9 105.7h123.1zm-9.6-20.6l-117.3 19.7"/><path fill="#97B9E2" d="M118.8 142l129.4 2.2-64.7-114.3zm589.3-1.1l129.4 2.2-64.7-114.3zm-377.1 135.6l291.2 3.3-144.9 245.5z"/><path fill="#A8395A" d="M31.4 271.1h889.9v6.5h-889.9zm445.9 248.8l294.8-499.7 69.4 119-134.3-.5-229.9 389.7-229.1-389.7h-133.1l68.4-118.6 293.8 499.8zm356.7-385l-61.9-106.2-62.3 105.7 124.2.5zm-588.3-.5l-62.2-105.7-60.9 105.7h123.1zm-9.6-20.6l-117.3 19.7"/><path fill="#A8395A" d="M118.8 136.6l129.4 2.1-64.7-114.3zm589.3-1.1l129.4 2.1-64.7-114.3zm-377.1 135.6l291.2 3.2-144.9 245.6z"/></svg>