<?xml version="1.0" encoding="utf-8"?>
<!-- Generator: Adobe Illustrator 19.1.0, SVG Export Plug-In . SVG Version: 6.00 Build 0)  -->
<!DOCTYPE svg PUBLIC "-//W3C//DTD SVG 1.1//EN" "http://www.w3.org/Graphics/SVG/1.1/DTD/svg11.dtd">
<svg version="1.1" id="Layer_1" xmlns="http://www.w3.org/2000/svg" xmlns:xlink="http://www.w3.org/1999/xlink" x="0px" y="0px"
	 viewBox="0 0 401.5 402" enable-background="new 0 0 401.5 402" xml:space="preserve">
<g id="gEGLZY.tif">
	<g>
		<path fill="#A93959" d="M401.1,23.4v48.1c-0.8,0.4-1.5,1.2-2.3,1.8c-8.7,7.8-17.3,15.7-26.1,23.5c-2.9,2.6-5.8,5.2-8.8,7.8
			c-2.1,1.8-4,4.8-7.5,4.5c1.3-2.2,2.6-4.4,3.9-6.5c0.1-0.2,0.1-0.4,0.2-0.6c-0.2,0.1-0.4,0.2-0.6,0.2c-5.6,1.9-11.2,3.9-16.8,5.5
			c-5.5,1.6-11.2,2.7-18,3.6c17.4-14.8,25.9-26.2,27-35.5c-1.5-0.5-2.4,0.7-3.5,1.2c-10.9,6-22.2,10.6-34.4,13.3
			c-2.2,0.5-3.7,0.2-5.3-1.5c-4.6-4.8-10.1-8.5-16-11.6c-22.9-11.7-52.2-9-71,7.1c-18.9,16.2-27.3,37.2-23.5,62.2
			c0.6,3.9-0.5,4.4-3.9,4.1c-15.4-1.2-30.5-4.1-45.2-9c-33-11.2-60.8-30.2-83.2-56.8c-2.7-3.2-3.7-2.5-5.2,0.7
			c-6.4,13.9-8.7,28.1-5,43.2c3.9,15.7,11.7,28.7,24.5,38.7c0.7,0.5,2.1,0.6,1.5,2.3c-8.3-0.3-16.2-2.5-23.7-6
			c-2.9-1.3-4.2-1.2-4,2.4c0.3,5.8,0.9,11.6,2.8,16.9c5.6,15.5,15.5,27.8,29.8,36.3c5.7,3.4,11.9,5.5,18.1,7.8
			c-7.4,2.2-14.7,2.7-22.2,1.8c-5.4-0.7-5.9-0.3-3.8,4.6c6.1,14.6,16.9,25.5,30.4,33.1c7.8,4.4,16.9,6.6,26.1,6.9
			c0.7,0,1.5,0,1.8,1.2c-13.2,10.4-28.2,17.5-44.3,22.2c-16.3,4.7-32.9,6.1-49.9,5.1c4.1,2.5,8.2,5,12.4,7.5c-0.4,3-2.9,4.5-4.9,6.3
			c-11.2,10-22.1,20.2-33.5,30c-1.6,1.4-3.2,2.8-4.9,4.2c-3.5,3-5.9,7.5-10.9,8.3V31.1c0-1.2,0.5-2.5,0.8-3.7
			C4.3,18.1,9.4,11,17.6,5.9c3.9-2.5,8.3-3,12.5-5h344.7c1.2,1,2.9,1.1,4.3,1.6C391,6.4,398,14.1,401.1,23.4z"/>
		<path fill="#A93959" d="M401.1,71.3v306.9c-0.1,0.3-0.2,0.7-0.3,1c-0.1,0.2-0.1,0.4-0.2,0.6c-0.1,0.3-0.2,0.6-0.3,0.9
			c-0.6,1.8-1.4,3.5-2.4,5.1c-0.5,0.8-0.9,1.5-1.5,2.3c-1,1.5-2.2,2.8-3.5,4.1c-0.4,0.4-0.8,0.7-1.1,1.1c-0.1,0.1-0.2,0.2-0.3,0.3
			c-0.3,0.3-0.6,0.5-0.9,0.8c-0.1,0.1-0.2,0.1-0.3,0.2c-0.3,0.2-0.5,0.4-0.8,0.6c-0.2,0.1-0.4,0.3-0.5,0.4c-0.4,0.3-0.8,0.6-1.2,0.8
			c-0.5,0.3-0.9,0.6-1.4,0.8c-0.4,0.2-0.8,0.5-1.3,0.7c-0.2,0.1-0.4,0.2-0.7,0.3c-0.3,0.2-0.6,0.3-1,0.4c-0.2,0.1-0.3,0.1-0.5,0.2
			c-0.5,0.2-1,0.4-1.5,0.6c-0.5,0.2-0.9,0.3-1.4,0.5c-0.4,0.1-0.8,0.3-1.2,0.4c-0.1,0-0.2,0.1-0.3,0.1c-0.3,0.1-0.7,0.2-1,0.3
			c-0.2,0-0.3,0.1-0.5,0.1c-1,0.2-1.9,0.4-2.9,0.6c-0.4,0.1-0.8,0.1-1.2,0.2c-0.2,0-0.4,0.1-0.6,0.1c-1.4,0.2-2.8,0.3-4.3,0.3
			c-0.5,0-1.1,0-1.6,0c-110.4,0-220.6,0-331-0.1c-1.3,0-2.6-0.1-3.9-0.2c-2.9-0.3-5.7-0.9-8.2-1.8c-0.4-0.1-0.7-0.3-1.1-0.4
			c-0.4-0.1-0.7-0.3-1.1-0.4c-7-3-12.5-8.6-16.6-16.3c-1.5-2.7-2.5-5.7-3.5-8.5v-2.6c1-1.2,1-2.3,0-3.5v-9.5c5-0.8,7.4-5.3,10.9-8.3
			c1.6-1.4,3.3-2.8,4.9-4.2c2.8-2.5,5.6-4.9,8.4-7.4c5.6-5,11.1-10,16.7-15c2.8-2.5,5.6-5,8.4-7.5c0.1-0.1,0.2-0.2,0.4-0.3
			c1.7-1.4,3.7-2.7,4.2-4.9c0,0,0,0,0,0c0.1-0.3,0.1-0.7,0.1-1.1c0,0,0,0,0,0c0,0,0.1,0,0.1,0.1c0.2,0.1,0.4,0.1,0.6,0.2
			c0,0,0,0,0,0c1.6,0.6,2.7,1,4.1,1.7c12.2,5.7,24.5,10.2,36.8,13.2c0,0,0,0,0,0c1.8,1,3.5,1.1,5.2,1.5c1.8,0.4,3.5,0.9,5.3,1.3
			c0.9,0.2,1.8,0.4,2.6,0.6c30.1,5.8,60.4,4.1,90.2-5.9c0.4-0.1,0.8-0.3,1.2-0.4c1.2-0.4,2.4-0.8,3.6-1.3c1.6-0.6,3.2-1.2,4.8-1.8
			c1-0.4,2-0.8,3-1.2c1-0.4,2-0.9,3-1.3s2-0.9,3-1.3c1-0.5,2-0.9,3-1.4c2.3-1.1,4.6-2.2,6.8-3.4c0.9-0.5,1.8-0.9,2.7-1.4
			c0.8-0.4,1.5-0.8,2.3-1.3c0.4-0.2,0.7-0.4,1.1-0.6c0.9-0.5,1.8-1,2.7-1.5c1-0.6,2-1.2,3-1.8c2-1.2,3.9-2.4,5.8-3.6
			c1-0.6,1.9-1.2,2.8-1.9c0.9-0.6,1.8-1.2,2.8-1.9c0.9-0.6,1.8-1.3,2.7-1.9c0.9-0.6,1.8-1.3,2.7-2c0.9-0.7,1.8-1.3,2.6-2
			c0.9-0.7,1.7-1.3,2.5-2c0.9-0.7,1.7-1.4,2.5-2.1c2.5-2.1,4.9-4.2,7.2-6.4c0.8-0.7,1.5-1.5,2.3-2.2c0.8-0.7,1.5-1.5,2.3-2.2
			c0.8-0.8,1.5-1.5,2.2-2.3c0.7-0.8,1.5-1.5,2.2-2.3c0.7-0.8,1.4-1.5,2.1-2.3c0.7-0.8,1.4-1.6,2.1-2.4c1.4-1.6,2.7-3.2,4-4.8
			c0.6-0.8,1.3-1.6,1.9-2.5c0.7-0.8,1.3-1.7,1.9-2.5c0.6-0.8,1.2-1.7,1.8-2.5c3-4.2,5.8-8.6,8.4-13.1c1-1.8,2-3.6,3-5.5c0,0,0,0,0,0
			c2-3.6,3.7-7.2,5.3-10.9c0.1-0.3,0.2-0.6,0.4-0.8c0.4-0.8,0.7-1.6,1-2.4c0.4-1,0.8-2,1.2-2.9c0.8-2,1.6-3.9,2.3-6
			c0.3-0.9,0.6-1.8,1-2.7c0.7-2.1,1.4-4.3,2.1-6.5c2.5-8.2,4.6-16.8,6.1-25.6c0.6-3.3,1.1-6.7,1.6-10.1c0.3-2.3,0.6-4.5,0.8-6.9
			c0.2-2.3,0.5-4.6,0.6-7c0.1-1.2,0.2-2.3,0.3-3.5c0.1-1.2,0.2-2.4,0.2-3.6c0-0.5,0-1,0.1-1.5c0.1-1.5,0.2-2.8,0.4-4.2
			c0.1-0.9,0.3-1.7,0.5-2.6c0.2-0.6,0.3-1.2,0.5-1.8c0.1-0.2,0.1-0.4,0.2-0.6c0.1-0.2,0.2-0.4,0.2-0.6c0.1-0.2,0.2-0.5,0.3-0.7
			c0.1-0.2,0.2-0.3,0.3-0.5c0.2-0.4,0.5-0.8,0.8-1.2c0.1-0.2,0.2-0.3,0.3-0.5c0.1-0.2,0.3-0.4,0.5-0.6c0.1-0.1,0.2-0.2,0.3-0.3
			c0.1-0.1,0.2-0.2,0.3-0.3c0.1-0.2,0.3-0.3,0.5-0.4c1-0.9,2.2-1.7,3.6-2.5c1.6-0.9,2.9-2.4,4.3-3.6c1.3-0.1,2.3-0.6,2.3-2.1
			c0.8-0.8,1.6-1.6,2.4-2.4c1.3,0,1.9-0.7,1.9-1.9c2.6-3.1,5.2-6.2,7.8-9.2c3.5,0.3,5.4-2.6,7.5-4.5c3-2.6,5.9-5.2,8.8-7.8
			c8.7-7.8,17.2-15.6,25.9-23.5C399.5,72.5,400.1,71.7,401.1,71.3z"/>
		<path fill="#FDFEFE" d="M401.1,0.8v23.8c-3-9.9-9.8-18-22.1-22.1c-1.4-0.5-3.2-0.3-4.3-1.5c0,0,0,0-0.1-0.1
			C383.4,0.8,392.1,0.9,401.1,0.8z"/>
		<path fill="#FDFEFE" d="M23.4,399.8c2.6,0.9,5.3,1.5,8.2,1.8C28.7,401.3,25.9,400.7,23.4,399.8z"/>
		<path fill="#FDFEFE" d="M368.1,401.8c1.5,0,2.9-0.2,4.3-0.3C371,401.7,369.5,401.8,368.1,401.8z"/>
		<path fill="#FDFEFE" d="M396.5,388.1c0.5-0.7,1-1.5,1.5-2.3C397.5,386.6,397,387.3,396.5,388.1z"/>
		<path fill="#FDFEFE" d="M30.1,0.8c-4.2,1.8-8.7,2.5-12.6,5C9.3,11,4,18.1,1.7,27.4c-0.3,1.2-0.7,2.5-1,3.7c0-10.1,0-20.2,0-30.3
			C10.5,0.8,20.3,0.8,30.1,0.8z"/>
		<path fill="#76BFF2" d="M0.6,368.1c1.1,1.2,1.1,2.3,0,3.5C0.6,370.4,0.6,369.2,0.6,368.1z"/>
		<path fill="#FDFEFE" d="M346.8,120.2c-0.8,0.8-1.6,1.6-2.4,2.4c-1,0.5-1.8,1.1-2.3,2.1c-1.4,1.2-2.7,2.7-4.3,3.5
			c-7.4,3.9-8.4,10.1-8.8,18.1c-3.9,75.9-37.8,134-107,167.1C168.6,339,113.7,336.9,60,311.9c-1.6-0.7-3.1-1.4-4.7-2.2
			c-4.1-2.5-8.2-5-12.4-7.5c17.1,1,33.7-0.4,50-5.1c16.2-4.7,31.1-11.8,44.3-22.2c-0.3-1.2-1.1-1.2-1.8-1.3
			c-9.2-0.3-18.4-2.5-26.1-6.9c-13.5-7.6-24.2-18.5-30.4-33.1c-2.1-5-1.6-5.3,3.8-4.6c7.5,0.9,14.8,0.4,22.2-1.8
			c-6.2-2.3-12.4-4.4-18.1-7.8c-14.3-8.5-24.1-20.8-29.8-36.3c-1.9-5.3-2.5-11.2-2.8-16.9c-0.2-3.6,1.1-3.8,4-2.4
			c7.5,3.5,15.4,5.7,23.7,6c0.6-1.6-0.8-1.7-1.5-2.3c-12.8-10-20.6-23-24.5-38.7c-3.7-15.1-1.3-29.4,5-43.2c1.5-3.2,2.5-3.9,5.2-0.7
			c22.5,26.6,50.2,45.6,83.3,56.8c14.7,4.9,29.8,7.8,45.2,9c3.3,0.3,4.5-0.2,3.9-4.1c-3.8-25,4.5-46,23.5-62.2
			c18.8-16.1,48.1-18.8,71-7.1c6,3,11.4,6.8,16,11.6c1.6,1.7,3.1,1.9,5.3,1.5c12.2-2.7,23.5-7.4,34.4-13.3c1-0.6,2-1.7,3.5-1.2
			c-1.1,9.4-9.7,20.7-27,35.5c6.9-0.9,12.5-2,18-3.6c5.7-1.7,11.2-3.7,16.8-5.5c0.1,0.1,0.3,0.3,0.4,0.4c-1.3,2.2-2.6,4.4-3.9,6.5
			c-2.6,3.1-5.2,6.2-7.8,9.3C348,118.9,347.4,119.5,346.8,120.2z"/>
		<path fill="#FDFEFE" d="M360,102.1c0.2-0.1,0.4-0.2,0.6-0.2c-0.1,0.2-0.1,0.4-0.2,0.6C360.3,102.3,360.1,102.2,360,102.1z"/>
		<path fill="#76BFF2" d="M342.1,124.7c0.5-1,1.3-1.7,2.3-2.1C344.4,124.2,343.4,124.6,342.1,124.7z"/>
		<path fill="#76BFF2" d="M346.8,120.2c0.6-0.6,1.3-1.3,1.9-1.9C348.6,119.5,348,120.2,346.8,120.2z"/>
	</g>
</g>
</svg>
